<mxfile host="Electron" modified="2024-04-15T16:57:36.076Z" agent="Mozilla/5.0 (Windows NT 10.0; Win64; x64) AppleWebKit/537.36 (KHTML, like Gecko) draw.io/21.7.5 Chrome/114.0.5735.289 Electron/25.8.1 Safari/537.36" etag="tWFwqlTaZcSYK_pdBFGf" version="21.7.5" type="device">
  <diagram name="Page-1" id="XUbRU8R5KdWT2gzfMiXP">
    <mxGraphModel dx="1354" dy="648" grid="1" gridSize="10" guides="1" tooltips="1" connect="1" arrows="1" fold="1" page="1" pageScale="1" pageWidth="827" pageHeight="1169" math="0" shadow="0">
      <root>
        <mxCell id="0" />
        <mxCell id="1" parent="0" />
        <mxCell id="JCqSKZlWli4nqD1iunD--1" value="Dispositivo" style="swimlane;fontStyle=1;align=center;verticalAlign=top;childLayout=stackLayout;horizontal=1;startSize=26;horizontalStack=0;resizeParent=1;resizeParentMax=0;resizeLast=0;collapsible=1;marginBottom=0;whiteSpace=wrap;html=1;" vertex="1" parent="1">
          <mxGeometry x="360" y="360" width="160" height="86" as="geometry" />
        </mxCell>
        <mxCell id="JCqSKZlWli4nqD1iunD--2" value="-" style="text;strokeColor=none;fillColor=none;align=left;verticalAlign=top;spacingLeft=4;spacingRight=4;overflow=hidden;rotatable=0;points=[[0,0.5],[1,0.5]];portConstraint=eastwest;whiteSpace=wrap;html=1;" vertex="1" parent="JCqSKZlWli4nqD1iunD--1">
          <mxGeometry y="26" width="160" height="26" as="geometry" />
        </mxCell>
        <mxCell id="JCqSKZlWli4nqD1iunD--3" value="" style="line;strokeWidth=1;fillColor=none;align=left;verticalAlign=middle;spacingTop=-1;spacingLeft=3;spacingRight=3;rotatable=0;labelPosition=right;points=[];portConstraint=eastwest;strokeColor=inherit;" vertex="1" parent="JCqSKZlWli4nqD1iunD--1">
          <mxGeometry y="52" width="160" height="8" as="geometry" />
        </mxCell>
        <mxCell id="JCqSKZlWli4nqD1iunD--4" value="+ send(data:String):String" style="text;strokeColor=none;fillColor=none;align=left;verticalAlign=top;spacingLeft=4;spacingRight=4;overflow=hidden;rotatable=0;points=[[0,0.5],[1,0.5]];portConstraint=eastwest;whiteSpace=wrap;html=1;" vertex="1" parent="JCqSKZlWli4nqD1iunD--1">
          <mxGeometry y="60" width="160" height="26" as="geometry" />
        </mxCell>
        <mxCell id="JCqSKZlWli4nqD1iunD--5" value="Ringer" style="swimlane;fontStyle=1;align=center;verticalAlign=top;childLayout=stackLayout;horizontal=1;startSize=26;horizontalStack=0;resizeParent=1;resizeParentMax=0;resizeLast=0;collapsible=1;marginBottom=0;whiteSpace=wrap;html=1;" vertex="1" parent="1">
          <mxGeometry x="600" y="360" width="80" height="86" as="geometry" />
        </mxCell>
        <mxCell id="JCqSKZlWli4nqD1iunD--6" value="-" style="text;strokeColor=none;fillColor=none;align=left;verticalAlign=top;spacingLeft=4;spacingRight=4;overflow=hidden;rotatable=0;points=[[0,0.5],[1,0.5]];portConstraint=eastwest;whiteSpace=wrap;html=1;" vertex="1" parent="JCqSKZlWli4nqD1iunD--5">
          <mxGeometry y="26" width="80" height="26" as="geometry" />
        </mxCell>
        <mxCell id="JCqSKZlWli4nqD1iunD--7" value="" style="line;strokeWidth=1;fillColor=none;align=left;verticalAlign=middle;spacingTop=-1;spacingLeft=3;spacingRight=3;rotatable=0;labelPosition=right;points=[];portConstraint=eastwest;strokeColor=inherit;" vertex="1" parent="JCqSKZlWli4nqD1iunD--5">
          <mxGeometry y="52" width="80" height="8" as="geometry" />
        </mxCell>
        <mxCell id="JCqSKZlWli4nqD1iunD--8" value="+ ring()" style="text;strokeColor=none;fillColor=none;align=left;verticalAlign=top;spacingLeft=4;spacingRight=4;overflow=hidden;rotatable=0;points=[[0,0.5],[1,0.5]];portConstraint=eastwest;whiteSpace=wrap;html=1;" vertex="1" parent="JCqSKZlWli4nqD1iunD--5">
          <mxGeometry y="60" width="80" height="26" as="geometry" />
        </mxCell>
        <mxCell id="JCqSKZlWli4nqD1iunD--9" value="CRC16_Calculator" style="swimlane;fontStyle=1;align=center;verticalAlign=top;childLayout=stackLayout;horizontal=1;startSize=26;horizontalStack=0;resizeParent=1;resizeParentMax=0;resizeLast=0;collapsible=1;marginBottom=0;whiteSpace=wrap;html=1;" vertex="1" parent="1">
          <mxGeometry x="260" y="80" width="170" height="86" as="geometry" />
        </mxCell>
        <mxCell id="JCqSKZlWli4nqD1iunD--10" value="-" style="text;strokeColor=none;fillColor=none;align=left;verticalAlign=top;spacingLeft=4;spacingRight=4;overflow=hidden;rotatable=0;points=[[0,0.5],[1,0.5]];portConstraint=eastwest;whiteSpace=wrap;html=1;" vertex="1" parent="JCqSKZlWli4nqD1iunD--9">
          <mxGeometry y="26" width="170" height="26" as="geometry" />
        </mxCell>
        <mxCell id="JCqSKZlWli4nqD1iunD--11" value="" style="line;strokeWidth=1;fillColor=none;align=left;verticalAlign=middle;spacingTop=-1;spacingLeft=3;spacingRight=3;rotatable=0;labelPosition=right;points=[];portConstraint=eastwest;strokeColor=inherit;" vertex="1" parent="JCqSKZlWli4nqD1iunD--9">
          <mxGeometry y="52" width="170" height="8" as="geometry" />
        </mxCell>
        <mxCell id="JCqSKZlWli4nqD1iunD--12" value="+ crcFor(data:String):Integer" style="text;strokeColor=none;fillColor=none;align=left;verticalAlign=top;spacingLeft=4;spacingRight=4;overflow=hidden;rotatable=0;points=[[0,0.5],[1,0.5]];portConstraint=eastwest;whiteSpace=wrap;html=1;" vertex="1" parent="JCqSKZlWli4nqD1iunD--9">
          <mxGeometry y="60" width="170" height="26" as="geometry" />
        </mxCell>
        <mxCell id="JCqSKZlWli4nqD1iunD--13" value="&lt;p style=&quot;margin:0px;margin-top:4px;text-align:center;&quot;&gt;&lt;i&gt;&amp;lt;&amp;lt;Interface&amp;gt;&amp;gt;&lt;/i&gt;&lt;br&gt;&lt;b&gt;Connection&lt;/b&gt;&lt;/p&gt;&lt;hr size=&quot;1&quot;&gt;&lt;p style=&quot;margin:0px;margin-left:4px;&quot;&gt;-&lt;/p&gt;&lt;hr size=&quot;1&quot;&gt;&lt;p style=&quot;margin:0px;margin-left:4px;&quot;&gt;+ sendData(data:String, crc:Integer):String&lt;br&gt;+ pict():String&lt;/p&gt;" style="verticalAlign=top;align=left;overflow=fill;fontSize=12;fontFamily=Helvetica;html=1;whiteSpace=wrap;" vertex="1" parent="1">
          <mxGeometry x="40" y="360" width="240" height="110" as="geometry" />
        </mxCell>
        <mxCell id="JCqSKZlWli4nqD1iunD--14" value="WifiConn" style="swimlane;fontStyle=1;align=center;verticalAlign=top;childLayout=stackLayout;horizontal=1;startSize=26;horizontalStack=0;resizeParent=1;resizeParentMax=0;resizeLast=0;collapsible=1;marginBottom=0;whiteSpace=wrap;html=1;" vertex="1" parent="1">
          <mxGeometry x="-110" y="540" width="240" height="100" as="geometry" />
        </mxCell>
        <mxCell id="JCqSKZlWli4nqD1iunD--15" value="- pict: String" style="text;strokeColor=none;fillColor=none;align=left;verticalAlign=top;spacingLeft=4;spacingRight=4;overflow=hidden;rotatable=0;points=[[0,0.5],[1,0.5]];portConstraint=eastwest;whiteSpace=wrap;html=1;" vertex="1" parent="JCqSKZlWli4nqD1iunD--14">
          <mxGeometry y="26" width="240" height="26" as="geometry" />
        </mxCell>
        <mxCell id="JCqSKZlWli4nqD1iunD--16" value="" style="line;strokeWidth=1;fillColor=none;align=left;verticalAlign=middle;spacingTop=-1;spacingLeft=3;spacingRight=3;rotatable=0;labelPosition=right;points=[];portConstraint=eastwest;strokeColor=inherit;" vertex="1" parent="JCqSKZlWli4nqD1iunD--14">
          <mxGeometry y="52" width="240" height="8" as="geometry" />
        </mxCell>
        <mxCell id="JCqSKZlWli4nqD1iunD--17" value="+ sendData(data:String, crc:integer):String&lt;br&gt;+ pict():String" style="text;strokeColor=none;fillColor=none;align=left;verticalAlign=top;spacingLeft=4;spacingRight=4;overflow=hidden;rotatable=0;points=[[0,0.5],[1,0.5]];portConstraint=eastwest;whiteSpace=wrap;html=1;" vertex="1" parent="JCqSKZlWli4nqD1iunD--14">
          <mxGeometry y="60" width="240" height="40" as="geometry" />
        </mxCell>
        <mxCell id="JCqSKZlWli4nqD1iunD--18" value="FourGConnection" style="swimlane;fontStyle=1;align=center;verticalAlign=top;childLayout=stackLayout;horizontal=1;startSize=26;horizontalStack=0;resizeParent=1;resizeParentMax=0;resizeLast=0;collapsible=1;marginBottom=0;whiteSpace=wrap;html=1;" vertex="1" parent="1">
          <mxGeometry x="205" y="680" width="230" height="90" as="geometry" />
        </mxCell>
        <mxCell id="JCqSKZlWli4nqD1iunD--19" value="- symb:String" style="text;strokeColor=none;fillColor=none;align=left;verticalAlign=top;spacingLeft=4;spacingRight=4;overflow=hidden;rotatable=0;points=[[0,0.5],[1,0.5]];portConstraint=eastwest;whiteSpace=wrap;html=1;" vertex="1" parent="JCqSKZlWli4nqD1iunD--18">
          <mxGeometry y="26" width="230" height="26" as="geometry" />
        </mxCell>
        <mxCell id="JCqSKZlWli4nqD1iunD--20" value="" style="line;strokeWidth=1;fillColor=none;align=left;verticalAlign=middle;spacingTop=-1;spacingLeft=3;spacingRight=3;rotatable=0;labelPosition=right;points=[];portConstraint=eastwest;strokeColor=inherit;" vertex="1" parent="JCqSKZlWli4nqD1iunD--18">
          <mxGeometry y="52" width="230" height="8" as="geometry" />
        </mxCell>
        <mxCell id="JCqSKZlWli4nqD1iunD--21" value="+ transmit(data:String, crc:Integer):String" style="text;strokeColor=none;fillColor=none;align=left;verticalAlign=top;spacingLeft=4;spacingRight=4;overflow=hidden;rotatable=0;points=[[0,0.5],[1,0.5]];portConstraint=eastwest;whiteSpace=wrap;html=1;" vertex="1" parent="JCqSKZlWli4nqD1iunD--18">
          <mxGeometry y="60" width="230" height="30" as="geometry" />
        </mxCell>
        <mxCell id="JCqSKZlWli4nqD1iunD--22" value="FourGConnectionAdapter" style="swimlane;fontStyle=1;align=center;verticalAlign=top;childLayout=stackLayout;horizontal=1;startSize=26;horizontalStack=0;resizeParent=1;resizeParentMax=0;resizeLast=0;collapsible=1;marginBottom=0;whiteSpace=wrap;html=1;" vertex="1" parent="1">
          <mxGeometry x="200" y="540" width="240" height="100" as="geometry" />
        </mxCell>
        <mxCell id="JCqSKZlWli4nqD1iunD--23" value="-&amp;nbsp;" style="text;strokeColor=none;fillColor=none;align=left;verticalAlign=top;spacingLeft=4;spacingRight=4;overflow=hidden;rotatable=0;points=[[0,0.5],[1,0.5]];portConstraint=eastwest;whiteSpace=wrap;html=1;" vertex="1" parent="JCqSKZlWli4nqD1iunD--22">
          <mxGeometry y="26" width="240" height="26" as="geometry" />
        </mxCell>
        <mxCell id="JCqSKZlWli4nqD1iunD--24" value="" style="line;strokeWidth=1;fillColor=none;align=left;verticalAlign=middle;spacingTop=-1;spacingLeft=3;spacingRight=3;rotatable=0;labelPosition=right;points=[];portConstraint=eastwest;strokeColor=inherit;" vertex="1" parent="JCqSKZlWli4nqD1iunD--22">
          <mxGeometry y="52" width="240" height="8" as="geometry" />
        </mxCell>
        <mxCell id="JCqSKZlWli4nqD1iunD--25" value="+ sendData(data:String, crc:integer):String&lt;br&gt;+ pict():String" style="text;strokeColor=none;fillColor=none;align=left;verticalAlign=top;spacingLeft=4;spacingRight=4;overflow=hidden;rotatable=0;points=[[0,0.5],[1,0.5]];portConstraint=eastwest;whiteSpace=wrap;html=1;" vertex="1" parent="JCqSKZlWli4nqD1iunD--22">
          <mxGeometry y="60" width="240" height="40" as="geometry" />
        </mxCell>
        <mxCell id="JCqSKZlWli4nqD1iunD--26" value="CRC32_Calculator" style="swimlane;fontStyle=1;align=center;verticalAlign=top;childLayout=stackLayout;horizontal=1;startSize=26;horizontalStack=0;resizeParent=1;resizeParentMax=0;resizeLast=0;collapsible=1;marginBottom=0;whiteSpace=wrap;html=1;" vertex="1" parent="1">
          <mxGeometry x="460" y="80" width="170" height="86" as="geometry" />
        </mxCell>
        <mxCell id="JCqSKZlWli4nqD1iunD--27" value="-" style="text;strokeColor=none;fillColor=none;align=left;verticalAlign=top;spacingLeft=4;spacingRight=4;overflow=hidden;rotatable=0;points=[[0,0.5],[1,0.5]];portConstraint=eastwest;whiteSpace=wrap;html=1;" vertex="1" parent="JCqSKZlWli4nqD1iunD--26">
          <mxGeometry y="26" width="170" height="26" as="geometry" />
        </mxCell>
        <mxCell id="JCqSKZlWli4nqD1iunD--28" value="" style="line;strokeWidth=1;fillColor=none;align=left;verticalAlign=middle;spacingTop=-1;spacingLeft=3;spacingRight=3;rotatable=0;labelPosition=right;points=[];portConstraint=eastwest;strokeColor=inherit;" vertex="1" parent="JCqSKZlWli4nqD1iunD--26">
          <mxGeometry y="52" width="170" height="8" as="geometry" />
        </mxCell>
        <mxCell id="JCqSKZlWli4nqD1iunD--29" value="+ crcFor(data:String):Integer" style="text;strokeColor=none;fillColor=none;align=left;verticalAlign=top;spacingLeft=4;spacingRight=4;overflow=hidden;rotatable=0;points=[[0,0.5],[1,0.5]];portConstraint=eastwest;whiteSpace=wrap;html=1;" vertex="1" parent="JCqSKZlWli4nqD1iunD--26">
          <mxGeometry y="60" width="170" height="26" as="geometry" />
        </mxCell>
        <mxCell id="JCqSKZlWli4nqD1iunD--30" value="&lt;p style=&quot;margin:0px;margin-top:4px;text-align:center;&quot;&gt;&lt;i&gt;&amp;lt;&amp;lt;Interface&amp;gt;&amp;gt;&lt;/i&gt;&lt;br&gt;&lt;b&gt;Calculator&lt;/b&gt;&lt;/p&gt;&lt;hr size=&quot;1&quot;&gt;&lt;p style=&quot;margin:0px;margin-left:4px;&quot;&gt;-&lt;/p&gt;&lt;hr size=&quot;1&quot;&gt;&lt;p style=&quot;margin:0px;margin-left:4px;&quot;&gt;+ crcFor(data:String):Integer&lt;br&gt;&lt;/p&gt;" style="verticalAlign=top;align=left;overflow=fill;fontSize=12;fontFamily=Helvetica;html=1;whiteSpace=wrap;" vertex="1" parent="1">
          <mxGeometry x="360" y="220" width="160" height="90" as="geometry" />
        </mxCell>
        <mxCell id="JCqSKZlWli4nqD1iunD--31" value="" style="endArrow=block;dashed=1;endFill=0;endSize=12;html=1;rounded=0;exitX=0.5;exitY=0;exitDx=0;exitDy=0;entryX=0.5;entryY=1;entryDx=0;entryDy=0;edgeStyle=orthogonalEdgeStyle;" edge="1" parent="1" source="JCqSKZlWli4nqD1iunD--14" target="JCqSKZlWli4nqD1iunD--13">
          <mxGeometry width="160" relative="1" as="geometry">
            <mxPoint x="170" y="480" as="sourcePoint" />
            <mxPoint x="330" y="480" as="targetPoint" />
          </mxGeometry>
        </mxCell>
        <mxCell id="JCqSKZlWli4nqD1iunD--32" value="" style="endArrow=block;dashed=1;endFill=0;endSize=12;html=1;rounded=0;exitX=0.5;exitY=0;exitDx=0;exitDy=0;entryX=0.5;entryY=1;entryDx=0;entryDy=0;edgeStyle=orthogonalEdgeStyle;" edge="1" parent="1" source="JCqSKZlWli4nqD1iunD--22" target="JCqSKZlWli4nqD1iunD--13">
          <mxGeometry width="160" relative="1" as="geometry">
            <mxPoint x="50" y="550" as="sourcePoint" />
            <mxPoint x="170" y="480" as="targetPoint" />
          </mxGeometry>
        </mxCell>
        <mxCell id="JCqSKZlWli4nqD1iunD--33" value="" style="endArrow=classic;html=1;rounded=0;entryX=0.5;entryY=0;entryDx=0;entryDy=0;exitX=0.498;exitY=1;exitDx=0;exitDy=0;exitPerimeter=0;" edge="1" parent="1" source="JCqSKZlWli4nqD1iunD--25" target="JCqSKZlWli4nqD1iunD--18">
          <mxGeometry width="50" height="50" relative="1" as="geometry">
            <mxPoint x="240" y="600" as="sourcePoint" />
            <mxPoint x="290" y="550" as="targetPoint" />
          </mxGeometry>
        </mxCell>
        <mxCell id="JCqSKZlWli4nqD1iunD--34" value="Display" style="swimlane;fontStyle=1;align=center;verticalAlign=top;childLayout=stackLayout;horizontal=1;startSize=26;horizontalStack=0;resizeParent=1;resizeParentMax=0;resizeLast=0;collapsible=1;marginBottom=0;whiteSpace=wrap;html=1;" vertex="1" parent="1">
          <mxGeometry x="480" y="499" width="190" height="86" as="geometry" />
        </mxCell>
        <mxCell id="JCqSKZlWli4nqD1iunD--35" value="-" style="text;strokeColor=none;fillColor=none;align=left;verticalAlign=top;spacingLeft=4;spacingRight=4;overflow=hidden;rotatable=0;points=[[0,0.5],[1,0.5]];portConstraint=eastwest;whiteSpace=wrap;html=1;" vertex="1" parent="JCqSKZlWli4nqD1iunD--34">
          <mxGeometry y="26" width="190" height="26" as="geometry" />
        </mxCell>
        <mxCell id="JCqSKZlWli4nqD1iunD--36" value="" style="line;strokeWidth=1;fillColor=none;align=left;verticalAlign=middle;spacingTop=-1;spacingLeft=3;spacingRight=3;rotatable=0;labelPosition=right;points=[];portConstraint=eastwest;strokeColor=inherit;" vertex="1" parent="JCqSKZlWli4nqD1iunD--34">
          <mxGeometry y="52" width="190" height="8" as="geometry" />
        </mxCell>
        <mxCell id="JCqSKZlWli4nqD1iunD--37" value="+ showBanner(img:String):String" style="text;strokeColor=none;fillColor=none;align=left;verticalAlign=top;spacingLeft=4;spacingRight=4;overflow=hidden;rotatable=0;points=[[0,0.5],[1,0.5]];portConstraint=eastwest;whiteSpace=wrap;html=1;" vertex="1" parent="JCqSKZlWli4nqD1iunD--34">
          <mxGeometry y="60" width="190" height="26" as="geometry" />
        </mxCell>
        <mxCell id="JCqSKZlWli4nqD1iunD--38" value="" style="endArrow=block;dashed=1;endFill=0;endSize=12;html=1;rounded=0;entryX=0.5;entryY=0;entryDx=0;entryDy=0;edgeStyle=orthogonalEdgeStyle;exitX=0.446;exitY=1.032;exitDx=0;exitDy=0;exitPerimeter=0;" edge="1" parent="1" source="JCqSKZlWli4nqD1iunD--12" target="JCqSKZlWli4nqD1iunD--30">
          <mxGeometry width="160" relative="1" as="geometry">
            <mxPoint x="320" y="200" as="sourcePoint" />
            <mxPoint x="170" y="480" as="targetPoint" />
          </mxGeometry>
        </mxCell>
        <mxCell id="JCqSKZlWli4nqD1iunD--40" value="" style="endArrow=block;dashed=1;endFill=0;endSize=12;html=1;rounded=0;entryX=0.5;entryY=0;entryDx=0;entryDy=0;edgeStyle=orthogonalEdgeStyle;exitX=0.706;exitY=1.038;exitDx=0;exitDy=0;exitPerimeter=0;" edge="1" parent="1" source="JCqSKZlWli4nqD1iunD--29" target="JCqSKZlWli4nqD1iunD--30">
          <mxGeometry width="160" relative="1" as="geometry">
            <mxPoint x="510" y="180" as="sourcePoint" />
            <mxPoint x="450" y="230" as="targetPoint" />
          </mxGeometry>
        </mxCell>
        <mxCell id="JCqSKZlWli4nqD1iunD--41" value="Concrete Strategy 1" style="text;html=1;align=center;verticalAlign=middle;resizable=0;points=[];autosize=1;strokeColor=none;fillColor=none;" vertex="1" parent="1">
          <mxGeometry x="280" y="48" width="130" height="30" as="geometry" />
        </mxCell>
        <mxCell id="JCqSKZlWli4nqD1iunD--42" value="Concrete Strategy 2" style="text;html=1;align=center;verticalAlign=middle;resizable=0;points=[];autosize=1;strokeColor=none;fillColor=none;" vertex="1" parent="1">
          <mxGeometry x="480" y="48" width="130" height="30" as="geometry" />
        </mxCell>
        <mxCell id="JCqSKZlWli4nqD1iunD--43" value="Strategy" style="text;html=1;align=center;verticalAlign=middle;resizable=0;points=[];autosize=1;strokeColor=none;fillColor=none;" vertex="1" parent="1">
          <mxGeometry x="520" y="250" width="70" height="30" as="geometry" />
        </mxCell>
        <mxCell id="JCqSKZlWli4nqD1iunD--44" value="Strategy" style="text;html=1;align=center;verticalAlign=middle;resizable=0;points=[];autosize=1;strokeColor=none;fillColor=none;" vertex="1" parent="1">
          <mxGeometry x="125" y="330" width="70" height="30" as="geometry" />
        </mxCell>
        <mxCell id="JCqSKZlWli4nqD1iunD--45" value="Concrete Strategy 1" style="text;html=1;align=center;verticalAlign=middle;resizable=0;points=[];autosize=1;strokeColor=none;fillColor=none;" vertex="1" parent="1">
          <mxGeometry x="-130" y="510" width="130" height="30" as="geometry" />
        </mxCell>
        <mxCell id="JCqSKZlWli4nqD1iunD--46" value="Concrete Strategy 2" style="text;html=1;align=center;verticalAlign=middle;resizable=0;points=[];autosize=1;strokeColor=none;fillColor=none;" vertex="1" parent="1">
          <mxGeometry x="310" y="510" width="130" height="30" as="geometry" />
        </mxCell>
        <mxCell id="JCqSKZlWli4nqD1iunD--47" value="adaptee" style="text;html=1;align=center;verticalAlign=middle;resizable=0;points=[];autosize=1;strokeColor=none;fillColor=none;" vertex="1" parent="1">
          <mxGeometry x="310" y="640" width="70" height="30" as="geometry" />
        </mxCell>
        <mxCell id="JCqSKZlWli4nqD1iunD--48" value="" style="endArrow=classic;html=1;rounded=0;exitX=0.5;exitY=0;exitDx=0;exitDy=0;entryX=0.5;entryY=1;entryDx=0;entryDy=0;" edge="1" parent="1" source="JCqSKZlWli4nqD1iunD--1" target="JCqSKZlWli4nqD1iunD--30">
          <mxGeometry width="50" height="50" relative="1" as="geometry">
            <mxPoint x="450" y="380" as="sourcePoint" />
            <mxPoint x="500" y="330" as="targetPoint" />
          </mxGeometry>
        </mxCell>
        <mxCell id="JCqSKZlWli4nqD1iunD--49" value="crcCalculator" style="text;html=1;align=center;verticalAlign=middle;resizable=0;points=[];autosize=1;strokeColor=none;fillColor=none;" vertex="1" parent="1">
          <mxGeometry x="435" y="318" width="90" height="30" as="geometry" />
        </mxCell>
        <mxCell id="JCqSKZlWli4nqD1iunD--50" value="" style="endArrow=classic;html=1;rounded=0;entryX=0;entryY=0.5;entryDx=0;entryDy=0;exitX=1;exitY=0.5;exitDx=0;exitDy=0;" edge="1" parent="1" source="JCqSKZlWli4nqD1iunD--2" target="JCqSKZlWli4nqD1iunD--6">
          <mxGeometry width="50" height="50" relative="1" as="geometry">
            <mxPoint x="460" y="430" as="sourcePoint" />
            <mxPoint x="510" y="380" as="targetPoint" />
          </mxGeometry>
        </mxCell>
        <mxCell id="JCqSKZlWli4nqD1iunD--51" value="ringer" style="text;html=1;align=center;verticalAlign=middle;resizable=0;points=[];autosize=1;strokeColor=none;fillColor=none;" vertex="1" parent="1">
          <mxGeometry x="533" y="377" width="50" height="30" as="geometry" />
        </mxCell>
        <mxCell id="JCqSKZlWli4nqD1iunD--52" value="" style="endArrow=classic;html=1;rounded=0;entryX=0.5;entryY=0;entryDx=0;entryDy=0;exitX=0.5;exitY=1;exitDx=0;exitDy=0;edgeStyle=orthogonalEdgeStyle;" edge="1" parent="1" source="JCqSKZlWli4nqD1iunD--1" target="JCqSKZlWli4nqD1iunD--34">
          <mxGeometry width="50" height="50" relative="1" as="geometry">
            <mxPoint x="450" y="460" as="sourcePoint" />
            <mxPoint x="460" y="410" as="targetPoint" />
          </mxGeometry>
        </mxCell>
        <mxCell id="JCqSKZlWli4nqD1iunD--53" value="display" style="text;html=1;align=center;verticalAlign=middle;resizable=0;points=[];autosize=1;strokeColor=none;fillColor=none;" vertex="1" parent="1">
          <mxGeometry x="480" y="450" width="60" height="30" as="geometry" />
        </mxCell>
        <mxCell id="JCqSKZlWli4nqD1iunD--54" value="" style="endArrow=classic;html=1;rounded=0;exitX=0.003;exitY=-0.008;exitDx=0;exitDy=0;entryX=0.999;entryY=0.235;entryDx=0;entryDy=0;exitPerimeter=0;entryPerimeter=0;" edge="1" parent="1">
          <mxGeometry width="50" height="50" relative="1" as="geometry">
            <mxPoint x="360.48" y="399.79200000000003" as="sourcePoint" />
            <mxPoint x="279.76" y="399.85" as="targetPoint" />
          </mxGeometry>
        </mxCell>
        <mxCell id="JCqSKZlWli4nqD1iunD--55" value="connection" style="text;html=1;align=center;verticalAlign=middle;resizable=0;points=[];autosize=1;strokeColor=none;fillColor=none;" vertex="1" parent="1">
          <mxGeometry x="282" y="379" width="80" height="30" as="geometry" />
        </mxCell>
      </root>
    </mxGraphModel>
  </diagram>
</mxfile>
